<?xml version="1.0" encoding="UTF-8"?>
<svg width="56px" height="18px" viewBox="0 0 56 18" version="1.1" xmlns="http://www.w3.org/2000/svg" xmlns:xlink="http://www.w3.org/1999/xlink">
    <title>编组 17</title>
    <g id="控件" stroke="none" stroke-width="1" fill="none" fill-rule="evenodd">
        <g id="2.导航/4.Menu导航菜单/亮色/深色侧边导航收起" transform="translate(-12.000000, -16.000000)" fill="#FFFFFF" fill-rule="nonzero">
            <g id="编组-17" transform="translate(12.000000, 16.000000)">
                <path d="M42.229,17.5000723 C38.6915325,17.5099698 35.813632,14.6544376 35.796,11.117 C35.796,7.5641522 38.6761522,4.684 42.229,4.684 C45.7818478,4.684 48.662,7.5641522 48.662,11.117 C48.6615775,11.3478169 48.6492277,11.5784578 48.625,11.808 L38.801,11.808 C39.0509506,13.567768 40.5408923,14.8861355 42.318,14.92 C43.6254163,14.9034686 44.8181047,14.1701861 45.423,13.011 L48.195,13.505 C47.2093885,15.9305574 44.8471301,17.5123916 42.229,17.5000723 Z M42.318,7.381 C40.8207964,7.39721948 39.4934685,8.34776527 38.996,9.76 L45.636,9.76 C45.1387878,8.34931438 43.8136347,7.39918204 42.318,7.381 L42.318,7.381 Z" id="Fill_1"></path>
                <polygon id="Fill_3" points="30.783 17.27 34.066 17.27 34.066 5.001 30.783 5.001"></polygon>
                <path d="M32.425,5.68434189e-14 C31.4064156,0.00770382481 30.5867936,0.839412006 30.594,1.858 C30.5873483,2.87619865 31.4068088,3.70729539 32.425,3.715 C33.4437422,3.70784382 34.2640958,2.87674912 34.258,1.858 C34.2646502,0.838861447 33.4441351,0.00715548768 32.425,5.68434189e-14" id="Fill_5"></path>
                <polygon id="Fill_6" points="10.674 1.067 10.674 7.667 3.593 7.667 3.593 1.067 -8.70414851e-14 1.067 -8.70414851e-14 17.26 3.593 17.26 3.593 10.66 10.674 10.66 10.674 17.26 14.267 17.26 14.267 1.067"></polygon>
                <path d="M22.23,17.499 C18.73785,17.4552772 15.9298733,14.6119237 15.9298733,11.1195 C15.9298733,7.6270763 18.73785,4.78372281 22.23,4.73999851 C23.3851686,4.73920104 24.5178853,5.0590758 25.502,5.664 L25.502,5.006 L28.633,5.006 L28.633,17.26 L25.421,17.26 L25.421,16.619 C24.4559297,17.1942033 23.3534851,17.4982306 22.23,17.499 Z M22.39,7.42997694 C20.8963626,7.42473783 19.54687,8.32043345 18.9716298,9.69886705 C18.3963896,11.0773006 18.7088734,12.666563 19.7631757,13.7245928 C20.8174781,14.7826226 22.4056277,15.1007133 23.7860828,14.5303415 C25.166538,13.9599697 26.0670006,12.6136467 26.0670006,11.12 C26.0681117,9.08668137 24.4233099,7.43606437 22.39,7.42997694 Z" id="Fill_7"></path>
                <path d="M55.455,3.86 C52.358229,4.44153362 50.1099517,7.13913066 50.096,10.29 L50.096,17.27 L53.241,17.27 L53.241,10.158 C53.2319931,8.56002209 54.4120367,7.20436403 55.996,6.993 L55.455,3.86 Z" id="Fill_8"></path>
            </g>
        </g>
    </g>
</svg>